{"title":"Hereafter 2010 CAM XViD-IMAGiNE","uid":6096543,"size":1444966179,"categoryP":"video","categoryS":"movies","magnet":"?xt=urn:btih:f903a5bc6a82c9d493ffdf748039b76d4b178e6f&amp;dn=Hereafter+2010+CAM+XViD-IMAGiNE&amp;tr=udp%3A%2F%2Ftracker.openbittorrent.com%3A80&amp;tr=udp%3A%2F%2Fopen.demonii.com%3A1337&amp;tr=udp%3A%2F%2Ftracker.coppersurfer.tk%3A6969&amp;tr=udp%3A%2F%2Fexodus.desync.com%3A6969","seeders":0,"leechers":1,"uploader":"zingooo","files":-1,"time":1294800449,"description":" *********** ****    ****      ***      ******** *********** ****    *** **********\n           *+*     +*+*+* *+*+*+   *+* *+*   *+*    *+*    *+*     *+*+*   *+* *+*        \n           +*+     +*+ +*+*+ +*+  +*+   +*+  +*+           +*+     *+*+*+  +*+ +*+        \n           +$+     +$+  +*+  +$+ +$++*++$++* *$*           +$+     +$+ +*+ +$+ +$++*++$  \n           +$+     +$+       +$+ +$+     +$+ +$+   +$+$    +$+     +$+  +$+$+$ +$+        \n           $+$     $+$       $+$ $+$     $+$ $+$    $+$    $+$     $+$   $+$+$ $+$        \n       $$$$$$$$$$$ $$$       $$$ $$$     $$$  $$$$$$$$ $$$$$$$$$$$ $$$    $$$$ $$$$$$$$$$     \n                                                \n\n\n\n                           Another Fine Release Brought to you from - IMAGiNE                   \n                                                 \n\n********************************************************************************************************************                                \n                                    Hereafter CAM XViD - IMAGiNE\n********************************************************************************************************************\n\nRipper ...........:IMAGiNE                                       IMDB Rating.......:7.4/10                             \nVideo Codec.......:XVID                                          Release Date......:12/01/11\nAudio Codec.......:MP3                                           Theatre Date......:22/10/11\nAudio Bitrate.....:128                                           Runtime...........:2h 2mn\nSubtitles.........:NIL                                           Language..........:ENGLISH\nResolution........:720 x 304                                     IMDb URL..........:http://www.imdb.com/title/tt1212419/\n\n\n[color=yellow]DETAILS:[/color]\n\nVideo\nID                               : 0\nFormat                           : MPEG-4 Visual\nFormat profile                   : Advanced Simple@L5\nFormat settings, BVOP            : Yes\nFormat settings, QPel            : No\nFormat settings, GMC             : No warppoints\nFormat settings, Matrix          : Default (MPEG)\nMuxing mode                      : Packed bitstream\nCodec ID                         : XVID\nCodec ID/Hint                    : XviD\nDuration                         : 2h 2mn\nBit rate                         : 1 419 Kbps\nWidth                            : 720 pixels\nHeight                           : 304 pixels\nDisplay aspect ratio             : 2.35:1\nFrame rate                       : 23.976 fps\nColor space                      : YUV\nChroma subsampling               : 4:2:0\nBit depth                        : 8 bits\nScan type                        : Progressive\nCompression mode                 : Lossy\nBits/(Pixel*Frame)               : 0.270\nStream size                      : 1.22 GiB (91%)\nWriting library                  : XviD 1.2.1 (UTC 2008-12-04)\n\nAudio\nID                               : 1\nFormat                           : MPEG Audio\nFormat version                   : Version 1\nFormat profile                   : Layer 3\nMode                             : Joint stereo\nMode extension                   : MS Stereo\nCodec ID                         : 55\nCodec ID/Hint                    : MP3\nDuration                         : 2h 2mn\nBit rate mode                    : Constant\nBit rate                         : 128 Kbps\nChannel(s)                       : 2 channels\nSampling rate                    : 44.1 KHz\nCompression mode                 : Lossy\nStream size                      : 112 MiB (8%)\nAlignment                        : Split accross interleaves\nInterleave, duration             : 42 ms (1.00 video frame)\nInterleave, preload duration     : 500 ms\n\n\n\n\n[color=yellow]SOURCES:[/color]\n\nVIDEO: Hereafter... :) Cw thanks matey\nAUDIO: Hereafter... :) Cw thanks matey\n\n[color=yellow]NOTES:[/color]\n\nIMAGiNE bringing you another release..........\n\nHere we are with Hereafter..........:P\nNow the video we did our normal things to it of white balance, gamma, sat, \nand rgb color adjustments as well as a slight sharpening filter. The audio \nis cam audio and not to bad imo. It was just a matter of syncing the audio \nand muxing it to the video.:P\n\n","torrent":{"xt":"urn:btih:f903a5bc6a82c9d493ffdf748039b76d4b178e6f","amp;dn":"Hereafter+2010+CAM+XViD-IMAGiNE","amp;tr":["udp%3A%2F%2Ftracker.openbittorrent.com%3A80","udp%3A%2F%2Fopen.demonii.com%3A1337","udp%3A%2F%2Ftracker.coppersurfer.tk%3A6969","udp%3A%2F%2Fexodus.desync.com%3A6969"],"infoHash":"f903a5bc6a82c9d493ffdf748039b76d4b178e6f","infoHashBuffer":{"type":"Buffer","data":[249,3,165,188,106,130,201,212,147,255,223,116,128,57,183,109,75,23,142,111]},"announce":[],"urlList":[]}}